<svg width="18" height="18" viewBox="0 0 18 18" fill="none" xmlns="http://www.w3.org/2000/svg">
<path fill-rule="evenodd" clip-rule="evenodd" d="M8.34855 0.0237914C6.79827 0.233373 5.49109 1.16352 4.79935 2.54932C4.28466 3.58037 4.10785 5.06039 4.35938 6.23235C4.74847 8.04551 6.22066 10.6578 8.24504 13.1272C8.61955 13.5841 8.69883 13.6609 8.84614 13.7095C9.149 13.8095 9.30306 13.6943 9.94604 12.8866C12.2209 10.0291 13.6056 7.34418 13.7399 5.53025C13.8183 4.47144 13.6117 3.40007 13.1569 2.5077C12.5189 1.25581 11.3879 0.398378 9.96583 0.0884917C9.59544 0.00778342 8.72471 -0.0270471 8.34855 0.0237914ZM3.41604 9.63163C3.35233 9.67244 3.27126 9.76322 3.23589 9.83333C3.10781 10.0871 1.00952 15.0127 1.02355 15.0267C1.03146 15.0347 2.21809 14.4384 3.66053 13.7016L6.28313 12.3621L5.81739 11.6716C5.38347 11.0283 4.85272 10.1712 4.6218 9.74094L4.52269 9.55624L4.02727 9.55684C3.58392 9.55736 3.51969 9.56521 3.41604 9.63163ZM13.3762 9.74094C12.7658 10.8783 11.4801 12.7466 10.4978 13.9236C10.0863 14.4167 9.94147 14.546 9.65275 14.6783C9.03927 14.9593 8.34201 14.8242 7.86076 14.331C7.70325 14.1696 7.0684 13.4052 6.93908 13.2214C6.93216 13.2115 6.05587 13.6614 6.01206 13.6974C6.0032 13.7046 6.80218 14.5179 7.78756 15.5047C8.99778 16.7167 9.59779 17.2941 9.63671 17.2843C9.68432 17.2723 16.417 13.7902 16.4432 13.7641C16.4526 13.7547 14.8256 9.9538 14.7472 9.80213C14.7192 9.74802 14.6427 9.67058 14.5771 9.63001C14.4709 9.56433 14.404 9.55624 13.9665 9.55624H13.4753L13.3762 9.74094ZM2.65289 15.4001L0.332443 16.5879L0.166531 16.9685C0.0752601 17.1778 9.15494e-05 17.4012 -0.000470984 17.4649C-0.00215858 17.6452 0.119841 17.848 0.278792 17.9292C0.415417 17.9989 0.47814 18 4.3585 18H8.29947L8.43799 17.9208C8.51418 17.8773 8.57665 17.8337 8.57679 17.8239C8.57697 17.8142 7.76625 16.9976 6.77521 16.0093L4.97335 14.2123L2.65289 15.4001ZM13.7371 16.3625L10.6174 17.9824L14.0986 17.9914C17.53 18.0002 17.5817 17.9993 17.7188 17.9293C17.8761 17.849 17.9995 17.6468 17.9995 17.4692C17.9995 17.3783 17.0508 15.0949 16.8964 14.8144C16.8588 14.7461 16.703 14.8224 13.7371 16.3625ZM7.99335 6.05473C7.99501 6.06814 8.00363 6.07849 8.03097 6.07856L8.19426 5.91324C8.33457 5.77117 8.47487 5.62907 8.61444 5.48624C8.65077 5.44902 8.67143 5.47096 8.69293 5.4938C8.69577 5.49682 8.69864 5.49986 8.70155 5.50278L9.46295 6.26632C9.77776 6.58182 10.0927 6.89721 10.4077 7.21266L10.6468 7.45222C10.6512 7.45664 10.6558 7.46089 10.6605 7.46514C10.6713 7.47499 10.6821 7.48482 10.6897 7.4967C10.709 7.52698 10.7028 7.55274 10.6642 7.55992C10.6464 7.56323 10.6279 7.56297 10.6094 7.56271H10.6094L10.5944 7.56257C10.4261 7.56257 10.2578 7.56257 10.0896 7.56258C9.25164 7.5626 8.41381 7.56262 7.57585 7.5621C7.56884 7.5621 7.56173 7.56262 7.55459 7.56315C7.54804 7.56362 7.54145 7.56411 7.53489 7.56419C7.51784 7.56441 7.50098 7.56192 7.48531 7.54962C7.44737 7.5377 7.45163 7.51047 7.45557 7.48532C7.45674 7.47786 7.45788 7.47057 7.45788 7.46393C7.45686 6.59724 7.45723 5.73054 7.4576 4.86371V4.8636V4.71052C7.4576 4.64739 7.45779 4.58425 7.45797 4.5211L7.45797 4.52053C7.45835 4.35765 7.45872 4.19473 7.45649 4.03189C7.45566 3.96508 7.4766 3.94027 7.54537 3.94042C8.38781 3.94147 9.23007 3.94148 10.0725 3.94148H10.0796L10.9242 3.94152L10.9365 3.94127C10.9617 3.9405 10.9886 3.93969 11.0004 3.96665C11.0123 3.99389 10.9929 4.01097 10.9748 4.02682C10.9708 4.0303 10.9669 4.03373 10.9634 4.03719C10.7833 4.21784 10.6031 4.39841 10.4228 4.57898L10.4056 4.59621L10.3578 4.64415C10.0576 4.94485 9.75739 5.2456 9.45776 5.5468C9.41884 5.58598 9.39234 5.59378 9.35017 5.54976C9.23173 5.4263 9.11061 5.30519 8.98726 5.18657C8.94315 5.14427 8.95205 5.1182 8.99097 5.07996C9.05232 5.0195 9.11348 4.95873 9.17446 4.8978C9.25186 4.82042 9.329 4.74277 9.40611 4.66514C9.44118 4.62984 9.47624 4.59455 9.51133 4.55928C9.52228 4.54826 9.53274 4.53687 9.54356 4.52509L9.54543 4.52305L9.56397 4.50294C9.54182 4.48755 9.52088 4.48898 9.50105 4.49033L9.50104 4.49033C9.49557 4.49071 9.49011 4.49107 9.48473 4.49107C9.33265 4.49087 9.18058 4.4909 9.0285 4.49093H9.0284C8.71344 4.49099 8.39829 4.49104 8.08333 4.48905C8.01587 4.48858 7.99474 4.50481 7.9952 4.57504C7.99696 4.86208 7.99705 5.14911 7.99715 5.43614C7.99716 5.46352 7.99717 5.4909 7.99718 5.51829C7.99725 5.68226 7.99732 5.84623 7.99779 6.0102C7.99779 6.01542 7.99668 6.02157 7.99557 6.02799C7.99533 6.02935 7.9951 6.03072 7.99486 6.0321C7.99456 6.03395 7.99426 6.03581 7.994 6.03767V6.03969C7.994 6.04192 7.99389 6.04422 7.99377 6.04655C7.99372 6.04738 7.99367 6.04821 7.99362 6.04904C7.99362 6.0502 7.99352 6.05133 7.99344 6.05246C7.99339 6.05321 7.99335 6.05396 7.99335 6.05473Z" fill="url(#paint0_linear_2019_33469)"/>
<defs>
<linearGradient id="paint0_linear_2019_33469" x1="17.9995" y1="-1.27172e-05" x2="-0.785097" y2="0.859873" gradientUnits="userSpaceOnUse">
<stop stop-color="#1BB287"/>
<stop offset="0.804452" stop-color="#1EC96B"/>
</linearGradient>
</defs>
</svg>
