<svg width="183" height="50" viewBox="0 0 183 50" fill="none" xmlns="http://www.w3.org/2000/svg">
<path d="M8.01254 29.5052C10.7102 26.7831 13.4165 24.0674 16.1034 21.3324C16.6736 20.751 16.9652 21.2161 17.3108 21.5607C20.8314 25.071 24.3498 28.5856 27.8704 32.0959C33.3414 37.5508 38.8145 43.0037 44.2876 48.4586C44.4906 48.661 44.7325 48.8376 44.8837 49.0724C45.1516 49.4902 45.0652 49.8455 44.5295 49.9446C44.2163 50.0027 43.8859 49.9812 43.5619 49.9812C29.607 49.9812 15.6542 49.9833 1.69923 49.9747C1.28237 49.9747 0.830957 50.1082 0.45082 49.8024C0.0750018 49.5139 0.161397 49.0982 0.161397 48.7106C0.159237 37.0598 0.163557 25.4091 0.148438 13.7584C0.148438 13.0412 0.379544 12.5222 0.938951 12.1001C2.65821 10.8015 4.36883 9.49003 6.13129 8.24743C7.02979 7.61428 7.3473 7.78872 7.45745 8.90426C7.56328 9.97673 7.49417 11.0514 7.48985 12.1238C7.47473 16.4546 7.55032 20.7854 7.42073 25.1162C7.38185 26.3954 7.49417 27.6854 7.49849 28.9689C7.49417 29.307 7.38617 29.7657 8.01254 29.5052Z" fill="#1EC96B"/>
<path d="M8.01507 29.5016C7.93084 29.7621 7.79477 29.9797 7.47726 29.8612C7.30016 29.7944 7.23752 29.6243 7.2548 29.4197C7.42975 27.1262 7.12089 24.824 7.25696 22.5456C7.44271 19.4638 7.32823 16.3907 7.36063 13.3154C7.37575 11.752 7.46215 10.182 7.25912 8.61423C7.17488 7.9617 7.01073 7.9574 6.55932 8.30196C4.65863 9.75777 2.76658 11.2286 0.833494 12.6414C0.38856 12.9666 0.261128 13.3047 0.261128 13.8043C0.267607 25.4529 0.265447 37.1015 0.274087 48.75C0.274087 49.1011 0.3864 49.4499 0.446877 49.7988C-0.235643 49.5856 0.066739 49.0171 0.066739 48.6165C0.0516199 35.9536 0.0580995 23.2907 0.0624193 10.6257C0.0624193 7.50515 0.0904976 4.38249 0.0473002 1.26199C0.0365008 0.340272 0.325924 -0.00214347 1.28059 1.00876e-05C16.9008 0.0193921 32.5188 0.0129314 48.139 0.015085C48.53 0.015085 49.0051 -0.0710572 49.1952 0.361807C49.3982 0.820515 48.9512 1.07033 48.6833 1.33521C41.7242 8.27828 34.7543 15.2127 27.8017 22.1644C27.2617 22.7049 26.8945 22.8126 26.3092 22.2053C24.6677 20.5019 22.9873 18.8307 21.2767 17.194C20.6655 16.6104 20.7886 16.2507 21.3285 15.7231C23.7519 13.3477 26.1451 10.9379 28.5447 8.53886C28.7887 8.29335 29.0177 8.03492 29.2747 7.76142C28.8816 7.49007 28.5166 7.59775 28.1753 7.59775C21.6979 7.58914 15.2183 7.61067 8.74079 7.56976C7.80557 7.5633 7.51182 7.78726 7.5183 8.75636C7.55934 15.357 7.53558 21.9577 7.55502 28.5583C7.55502 28.8921 7.23104 29.4994 8.01507 29.5016Z" fill="#2BD076"/>
<path d="M128.338 28.3694C128.338 27.3911 128.338 26.4128 128.338 25.4345C128.338 21.2327 128.355 17.031 128.323 12.8311C128.316 12.0573 128.531 11.8394 129.193 11.8795C130.156 11.9369 131.124 11.9254 132.088 11.8815C132.632 11.8566 132.836 12.0248 132.819 12.6706C132.78 14.1323 132.807 15.5979 132.807 17.0615C132.807 23.6823 132.797 30.3012 132.821 36.922C132.822 37.6385 132.701 37.9385 131.996 37.8831C131.035 37.8086 130.064 37.82 129.103 37.8812C128.529 37.9175 128.25 37.6595 127.979 37.1283C125.294 31.8546 122.585 26.5924 119.878 21.3321C119.729 21.0436 119.653 20.6824 119.334 20.5085C119.095 20.8238 119.21 21.1869 119.21 21.5174C119.201 26.6421 119.187 31.7667 119.22 36.8895C119.225 37.7035 119.007 37.927 118.31 37.8792C117.349 37.8143 116.38 37.8449 115.415 37.8716C114.967 37.8831 114.758 37.7761 114.758 37.1952C114.773 28.9847 114.771 20.7722 114.761 12.5617C114.761 12.0706 114.901 11.8795 115.346 11.8872C116.594 11.9063 117.845 11.9178 119.092 11.8815C119.607 11.8662 119.76 12.235 119.961 12.6247C122.539 17.6386 125.122 22.6505 127.706 27.6605C127.844 27.928 127.997 28.1841 128.144 28.4458C128.207 28.4229 128.273 28.3962 128.338 28.3694Z" fill="#828282"/>
<path d="M154.944 35.4955C151.315 38.3567 147.015 38.6767 143.509 36.3289C141.304 34.8536 140.074 32.6732 139.483 30.1171C138.436 25.5833 138.569 21.1072 140.68 16.9008C142.565 13.1447 145.881 11.7271 149.885 11.8871C153.801 12.0433 156.7 13.8014 158.168 17.6524C158.433 18.3445 158.291 18.5752 157.61 18.7203C156.597 18.9361 155.589 19.204 154.601 19.524C153.993 19.7212 153.683 19.6077 153.38 19.0087C152.74 17.738 151.866 16.7036 150.392 16.3353C148.014 15.7437 146.162 16.5753 145.073 18.8096C144.025 20.9602 143.915 23.2783 143.951 25.6112C143.981 27.4827 144.23 29.319 145.11 31.0045C146.129 32.9597 147.7 33.7597 149.892 33.4732C151.838 33.2183 153.355 31.797 153.843 29.838C154.027 29.0994 153.856 28.8315 153.074 28.8743C152.007 28.9339 150.933 28.8743 149.865 28.8948C149.431 28.9022 149.268 28.7478 149.279 28.3032C149.301 27.2818 149.307 26.2586 149.277 25.2373C149.262 24.7256 149.486 24.6196 149.934 24.6215C152.686 24.6345 155.438 24.6401 158.19 24.6196C158.77 24.6159 158.914 24.8577 158.912 25.3972C158.897 29.2073 158.897 33.0174 158.914 36.8256C158.915 37.3484 158.754 37.5698 158.231 37.5158C157.959 37.4879 157.68 37.514 157.406 37.5103C156.705 37.501 155.899 37.7019 155.328 37.4191C154.686 37.1028 155.275 36.1708 154.944 35.4955Z" fill="#828282"/>
<path d="M71.6348 22.5276C72.0989 22.4339 72.2219 22.1168 72.4008 21.8741C74.7079 18.7599 77.015 15.6456 79.3054 12.518C79.6092 12.1034 79.9185 11.878 80.4571 11.8913C81.9144 11.9276 83.3736 11.9009 84.8328 11.9085C85.0397 11.9104 85.3174 11.8035 85.4366 12.0098C85.5988 12.2926 85.2894 12.4588 85.1534 12.6441C83.1015 15.4393 81.0553 18.2364 78.9718 21.0067C78.5916 21.5111 78.5544 21.8932 78.847 22.453C81.3628 27.2715 83.8507 32.1034 86.3479 36.9314C86.8343 37.8695 86.838 37.8695 85.7907 37.8714C84.4564 37.8734 83.1202 37.8428 81.7877 37.8848C81.2398 37.902 80.9565 37.7052 80.7124 37.2161C79.0314 33.8516 77.3225 30.5023 75.6211 27.1473C75.4925 26.8932 75.3471 26.6487 75.2185 26.3965C75.0527 26.0736 74.8868 25.957 74.6147 26.3143C73.6997 27.518 72.7735 28.714 71.8436 29.9043C71.605 30.21 71.6367 30.5577 71.6367 30.9035C71.6348 32.9383 71.6143 34.975 71.6497 37.0098C71.6609 37.6384 71.5398 37.9211 70.8484 37.8867C69.6408 37.8294 68.4276 37.8562 67.2181 37.8772C66.7839 37.8848 66.5863 37.7415 66.6087 37.283C66.6273 36.8703 66.6106 36.4557 66.6106 36.043C66.6106 28.3472 66.6236 20.6495 66.5938 12.9536C66.5901 12.1321 66.7746 11.8168 67.6206 11.8837C68.6382 11.962 69.6706 11.9582 70.69 11.8837C71.5025 11.8245 71.6628 12.1474 71.6535 12.9097C71.6125 16.0908 71.6348 19.2681 71.6348 22.5276Z" fill="#828282"/>
<path d="M182.932 37.1471C180.695 28.9575 178.466 20.766 176.249 12.5707C176.109 12.0546 175.883 11.8673 175.362 11.8807C173.845 11.9189 172.323 11.9361 170.808 11.8769C170.107 11.8482 169.882 12.1464 169.706 12.8C168.459 17.4194 167.174 22.0255 165.9 26.6373C164.939 30.1176 163.986 33.6018 163.007 37.0783C162.834 37.6938 162.921 37.9174 163.588 37.8868C164.771 37.8333 165.958 37.8467 167.141 37.883C167.659 37.8983 167.897 37.7262 168.023 37.1892C168.344 35.8322 168.752 34.4963 169.062 33.1374C169.199 32.5334 169.438 32.2964 170.045 32.3289C171.014 32.3825 171.988 32.3442 172.959 32.3442C173.933 32.3442 174.908 32.4016 175.874 32.3251C176.586 32.2678 176.82 32.5965 176.958 33.2406C177.246 34.5746 177.6 35.8915 177.893 37.2217C178.001 37.7071 178.211 37.8963 178.701 37.883C179.946 37.8505 181.193 37.8447 182.436 37.883C183.039 37.9021 183.07 37.6555 182.932 37.1471ZM174.944 27.9369C173.61 27.9044 172.276 27.9255 170.94 27.9255C170.637 27.9255 170.398 27.9178 170.518 27.4591C171.337 24.3419 172.141 21.2228 172.95 18.1037C173.028 18.0922 173.109 18.0788 173.187 18.0674C173.634 19.841 174.084 21.6127 174.527 23.3882C174.84 24.6477 175.134 25.9129 175.453 27.1705C175.577 27.6617 175.555 27.9522 174.944 27.9369Z" fill="#828282"/>
<path d="M110.648 37.0149C109.929 34.6989 109.258 32.3713 108.569 30.0476C108.411 29.6062 108.335 29.1437 108.182 28.7004C106.581 23.388 104.972 18.0755 103.392 12.7573C103.215 12.1592 102.998 11.8516 102.259 11.8764C100.59 11.9356 98.915 11.9299 97.2439 11.8783C96.5651 11.8592 96.312 12.1248 96.1453 12.6885C95.2958 15.5645 94.4181 18.4309 93.5504 21.3012C91.9598 26.5525 90.3872 31.8076 88.7623 37.0474C88.5314 37.7927 88.7362 37.9054 89.4512 37.8825C90.7206 37.8385 91.9939 37.85 93.2632 37.8787C93.7975 37.8901 94.1068 37.7984 94.2494 37.2251C94.5968 35.834 95.0467 34.4676 95.4183 33.0822C95.5629 32.5376 95.8099 32.314 96.4486 32.3255C98.6217 32.3694 100.797 32.3694 102.97 32.3255C103.627 32.3121 103.926 32.5089 104.071 33.1089C104.398 34.4734 104.796 35.8206 105.131 37.1812C105.26 37.6933 105.491 37.9073 106.085 37.8844C107.389 37.8366 108.696 37.8271 109.997 37.8863C110.813 37.9226 110.845 37.6513 110.648 37.0149ZM97.5854 27.9303C97.1174 27.936 96.9105 27.8462 97.0592 27.3379C97.9549 24.2804 98.8266 21.219 99.7103 18.1577C99.7344 18.0774 99.8007 18.0086 99.8971 17.8577C100.666 20.6285 101.415 23.3268 102.165 26.0251C102.096 26.6805 102.49 27.2614 102.498 27.9035C100.861 27.9112 99.2223 27.9093 97.5854 27.9303Z" fill="#828282"/>
<path d="M108.679 29.8839C107.281 29.2765 106.582 28.6123 106.762 27.8828C108.299 28.4789 108.958 29.1459 108.679 29.8839Z" fill="#828282"/>
</svg>
