<svg width="183" height="51" viewBox="0 0 183 51" fill="none" xmlns="http://www.w3.org/2000/svg">
<path d="M8.01254 29.9661C10.7102 27.244 13.4165 24.5284 16.1034 21.7934C16.6736 21.2119 16.9652 21.6771 17.3108 22.0216C20.8314 25.5319 24.3498 29.0465 27.8704 32.5568C33.3414 38.0118 38.8145 43.4646 44.2876 48.9195C44.4906 49.122 44.7325 49.2986 44.8837 49.5333C45.1516 49.9511 45.0652 50.3064 44.5295 50.4055C44.2163 50.4636 43.8859 50.4421 43.5619 50.4421C29.607 50.4421 15.6542 50.4443 1.69923 50.4356C1.28237 50.4356 0.830957 50.5692 0.45082 50.2634C0.0750018 49.9748 0.161397 49.5592 0.161397 49.1715C0.159237 37.5208 0.163557 25.87 0.148438 14.2193C0.148438 13.5022 0.379544 12.9832 0.938951 12.5611C2.65821 11.2625 4.36883 9.95096 6.13129 8.70836C7.02979 8.07522 7.3473 8.24966 7.45745 9.3652C7.56328 10.4377 7.49417 11.5123 7.48985 12.5848C7.47473 16.9156 7.55032 21.2464 7.42073 25.5772C7.38185 26.8564 7.49417 28.1464 7.49849 29.4299C7.49417 29.768 7.38617 30.2267 8.01254 29.9661Z" fill="#1EC96B"/>
<path d="M8.01507 29.9664C7.93084 30.227 7.79477 30.4445 7.47726 30.326C7.30016 30.2593 7.23752 30.0892 7.2548 29.8846C7.42975 27.591 7.12089 25.2889 7.25696 23.0104C7.44271 19.9287 7.32823 16.8556 7.36063 13.7803C7.37575 12.2168 7.46215 10.6469 7.25912 9.07907C7.17488 8.42655 7.01073 8.42224 6.55932 8.76681C4.65863 10.2226 2.76658 11.6935 0.833494 13.1062C0.38856 13.4314 0.261128 13.7695 0.261128 14.2691C0.267607 25.9177 0.265447 37.5663 0.274087 49.2149C0.274087 49.5659 0.3864 49.9148 0.446877 50.2637C-0.235643 50.0505 0.066739 49.4819 0.066739 49.0814C0.0516199 36.4185 0.0580995 23.7556 0.0624193 11.0905C0.0624193 7.96999 0.0904976 4.84734 0.0473002 1.72684C0.0365008 0.805115 0.325924 0.4627 1.28059 0.464854C16.9008 0.484236 32.5188 0.477775 48.139 0.479929C48.53 0.479929 49.0051 0.393787 49.1952 0.826651C49.3982 1.28536 48.9512 1.53517 48.6833 1.80006C41.7242 8.74312 34.7543 15.6776 27.8017 22.6292C27.2617 23.1698 26.8945 23.2775 26.3092 22.6702C24.6677 20.9667 22.9873 19.2955 21.2767 17.6588C20.6655 17.0752 20.7886 16.7156 21.3285 16.188C23.7519 13.8126 26.1451 11.4028 28.5447 9.0037C28.7887 8.75819 29.0177 8.49977 29.2747 8.22627C28.8816 7.95492 28.5166 8.0626 28.1753 8.0626C21.6979 8.05398 15.2183 8.07552 8.74079 8.0346C7.80557 8.02814 7.51182 8.25211 7.5183 9.22121C7.55934 15.8219 7.53558 22.4225 7.55502 29.0231C7.55502 29.3569 7.23104 29.9643 8.01507 29.9664Z" fill="#2BD076"/>
<path d="M128.338 28.8342C128.338 27.8559 128.338 26.8776 128.338 25.8993C128.338 21.6976 128.355 17.4958 128.323 13.296C128.316 12.5221 128.531 12.3043 129.193 12.3444C130.156 12.4017 131.124 12.3903 132.088 12.3463C132.632 12.3215 132.836 12.4896 132.819 13.1354C132.78 14.5972 132.807 16.0627 132.807 17.5264C132.807 24.1472 132.797 30.766 132.821 37.3868C132.822 38.1033 132.701 38.4033 131.996 38.3479C131.035 38.2734 130.064 38.2849 129.103 38.346C128.529 38.3823 128.25 38.1244 127.979 37.5932C125.294 32.3195 122.585 27.0572 119.878 21.7969C119.729 21.5084 119.653 21.1473 119.334 20.9734C119.095 21.2887 119.21 21.6517 119.21 21.9823C119.201 27.1069 119.187 32.2316 119.22 37.3543C119.225 38.1683 119.007 38.3919 118.31 38.3441C117.349 38.2791 116.38 38.3097 115.415 38.3365C114.967 38.3479 114.758 38.2409 114.758 37.66C114.773 29.4495 114.771 21.2371 114.761 13.0265C114.761 12.5355 114.901 12.3444 115.346 12.352C116.594 12.3711 117.845 12.3826 119.092 12.3463C119.607 12.331 119.76 12.6998 119.961 13.0896C122.539 18.1034 125.122 23.1153 127.706 28.1254C127.844 28.3929 127.997 28.6489 128.144 28.9107C128.207 28.8877 128.273 28.861 128.338 28.8342Z" fill="white"/>
<path d="M154.944 35.9603C151.315 38.8216 147.015 39.1416 143.509 36.7938C141.304 35.3185 140.074 33.1381 139.483 30.5819C138.436 26.0481 138.569 21.572 140.68 17.3657C142.565 13.6095 145.881 12.1919 149.885 12.3519C153.801 12.5082 156.7 14.2663 158.168 18.1173C158.433 18.8093 158.291 19.04 157.61 19.1851C156.597 19.4009 155.589 19.6688 154.601 19.9888C153.993 20.186 153.683 20.0725 153.38 19.4735C152.74 18.2029 151.866 17.1685 150.392 16.8001C148.014 16.2085 146.162 17.0401 145.073 19.2744C144.025 21.4251 143.915 23.7431 143.951 26.076C143.981 27.9476 144.23 29.7838 145.11 31.4693C146.129 33.4246 147.7 34.2246 149.892 33.9381C151.838 33.6832 153.355 32.2618 153.843 30.3028C154.027 29.5643 153.856 29.2964 153.074 29.3392C152.007 29.3987 150.933 29.3392 149.865 29.3596C149.431 29.3671 149.268 29.2127 149.279 28.768C149.301 27.7467 149.307 26.7235 149.277 25.7021C149.262 25.1905 149.486 25.0844 149.934 25.0863C152.686 25.0993 155.438 25.1049 158.19 25.0844C158.77 25.0807 158.914 25.3226 158.912 25.8621C158.897 29.6722 158.897 33.4823 158.914 37.2905C158.915 37.8133 158.754 38.0346 158.231 37.9807C157.959 37.9528 157.68 37.9788 157.406 37.9751C156.705 37.9658 155.899 38.1667 155.328 37.8839C154.686 37.5677 155.275 36.6356 154.944 35.9603Z" fill="white"/>
<path d="M71.6348 22.9924C72.0989 22.8988 72.2219 22.5816 72.4008 22.339C74.7079 19.2247 77.015 16.1105 79.3054 12.9829C79.6092 12.5683 79.9185 12.3428 80.4571 12.3562C81.9144 12.3925 83.3736 12.3657 84.8328 12.3734C85.0397 12.3753 85.3174 12.2683 85.4366 12.4746C85.5988 12.7574 85.2894 12.9236 85.1534 13.109C83.1015 15.9041 81.0553 18.7012 78.9718 21.4716C78.5916 21.976 78.5544 22.3581 78.847 22.9179C81.3628 27.7364 83.8507 32.5682 86.3479 37.3963C86.8343 38.3344 86.838 38.3344 85.7907 38.3363C84.4564 38.3382 83.1202 38.3076 81.7877 38.3497C81.2398 38.3669 80.9565 38.1701 80.7124 37.681C79.0314 34.3164 77.3225 30.9672 75.6211 27.6122C75.4925 27.3581 75.3471 27.1135 75.2185 26.8613C75.0527 26.5384 74.8868 26.4219 74.6147 26.7792C73.6997 27.9828 72.7735 29.1789 71.8436 30.3692C71.605 30.6749 71.6367 31.0226 71.6367 31.3684C71.6348 33.4032 71.6143 35.4398 71.6497 37.4746C71.6609 38.1032 71.5398 38.386 70.8484 38.3516C69.6408 38.2943 68.4276 38.321 67.2181 38.342C66.7839 38.3497 66.5863 38.2064 66.6087 37.7478C66.6273 37.3351 66.6106 36.9205 66.6106 36.5079C66.6106 28.812 66.6236 21.1143 66.5938 13.4185C66.5901 12.5969 66.7746 12.2817 67.6206 12.3485C68.6382 12.4269 69.6706 12.4231 70.69 12.3485C71.5025 12.2893 71.6628 12.6122 71.6535 13.3745C71.6125 16.5556 71.6348 19.7329 71.6348 22.9924Z" fill="white"/>
<path d="M182.932 37.612C180.695 29.4224 178.466 21.2309 176.249 13.0355C176.109 12.5195 175.883 12.3322 175.362 12.3455C173.845 12.3838 172.323 12.401 170.808 12.3417C170.107 12.3131 169.882 12.6112 169.706 13.2649C168.459 17.8843 167.174 22.4904 165.9 27.1021C164.939 30.5825 163.986 34.0667 163.007 37.5432C162.834 38.1586 162.921 38.3822 163.588 38.3516C164.771 38.2981 165.958 38.3115 167.141 38.3478C167.659 38.3631 167.897 38.1911 168.023 37.654C168.344 36.2971 168.752 34.9611 169.062 33.6022C169.199 32.9983 169.438 32.7613 170.045 32.7938C171.014 32.8473 171.988 32.8091 172.959 32.8091C173.933 32.8091 174.908 32.8664 175.874 32.79C176.586 32.7326 176.82 33.0614 176.958 33.7054C177.246 35.0395 177.6 36.3563 177.893 37.6865C178.001 38.172 178.211 38.3612 178.701 38.3478C179.946 38.3153 181.193 38.3096 182.436 38.3478C183.039 38.3669 183.07 38.1204 182.932 37.612ZM174.944 28.4018C173.61 28.3693 172.276 28.3903 170.94 28.3903C170.637 28.3903 170.398 28.3827 170.518 27.924C171.337 24.8068 172.141 21.6876 172.95 18.5685C173.028 18.557 173.109 18.5437 173.187 18.5322C173.634 20.3058 174.084 22.0775 174.527 23.8531C174.84 25.1126 175.134 26.3778 175.453 27.6354C175.577 28.1266 175.555 28.4171 174.944 28.4018Z" fill="white"/>
<path d="M110.648 37.4798C109.929 35.1637 109.258 32.8362 108.569 30.5124C108.411 30.071 108.335 29.6086 108.182 29.1652C106.581 23.8528 104.972 18.5404 103.392 13.2222C103.215 12.6241 102.998 12.3164 102.259 12.3412C100.59 12.4005 98.915 12.3947 97.2439 12.3431C96.5651 12.324 96.312 12.5897 96.1453 13.1534C95.2958 16.0294 94.4181 18.8958 93.5504 21.766C91.9598 27.0173 90.3872 32.2724 88.7623 37.5123C88.5314 38.2575 88.7362 38.3703 89.4512 38.3473C90.7206 38.3034 91.9939 38.3149 93.2632 38.3435C93.7975 38.355 94.1068 38.2633 94.2494 37.69C94.5968 36.2988 95.0467 34.9325 95.4183 33.547C95.5629 33.0024 95.8099 32.7788 96.4486 32.7903C98.6217 32.8343 100.797 32.8343 102.97 32.7903C103.627 32.7769 103.926 32.9738 104.071 33.5738C104.398 34.9382 104.796 36.2854 105.131 37.646C105.26 38.1582 105.491 38.3722 106.085 38.3493C107.389 38.3015 108.696 38.2919 109.997 38.3512C110.813 38.3875 110.845 38.1161 110.648 37.4798ZM97.5854 28.3951C97.1174 28.4009 96.9105 28.311 97.0592 27.8027C97.9549 24.7452 98.8266 21.6839 99.7103 18.6225C99.7344 18.5423 99.8007 18.4735 99.8971 18.3225C100.666 21.0934 101.415 23.7916 102.165 26.4899C102.096 27.1454 102.49 27.7263 102.498 28.3684C100.861 28.376 99.2223 28.3741 97.5854 28.3951Z" fill="white"/>
<path d="M108.679 30.3488C107.281 29.7413 106.582 29.0771 106.762 28.3477C108.299 28.9437 108.958 29.6108 108.679 30.3488Z" fill="white"/>
</svg>
