<svg width="48" height="48" viewBox="0 0 48 48" fill="none" xmlns="http://www.w3.org/2000/svg">
<g clip-path="url(#clip0_356_268)">
<mask id="mask0_356_268" style="mask-type:luminance" maskUnits="userSpaceOnUse" x="0" y="0" width="48" height="48">
<path d="M48 0H0V48H48V0Z" fill="white"/>
</mask>
<g mask="url(#mask0_356_268)">
<path d="M5.19928 48.0008C4.79928 48.0008 4.39928 48.0008 3.99929 47.6008C1.1993 46.8008 -0.400705 44.4008 0.399294 41.6008C0.399294 40.8008 0.799295 40.4008 1.1993 39.6008C7.19928 28.0008 13.5993 16.4008 19.5993 4.8008C20.3993 4.0008 20.7993 3.20078 21.9993 2.40078C23.1993 1.60078 24.7993 1.60078 26.3993 2.40078C27.1993 3.20078 27.5993 4.0008 28.3993 5.2008C31.1993 10.4008 33.9993 15.6008 36.7993 20.8008C39.9993 27.2008 43.5992 33.6008 46.7992 39.6008C47.1992 40.4008 47.5992 41.6008 47.9992 42.4008C48.3992 44.8008 47.1992 46.8008 44.7992 47.2008C44.3992 47.2008 43.5992 47.6008 43.1992 47.6008C30.3993 48.0008 17.5993 48.0008 5.19928 48.0008ZM23.9993 45.2008C29.9993 45.2008 35.5993 45.2008 41.5992 45.2008C41.9992 45.2008 41.9992 45.2008 42.3992 45.2008C43.5992 45.2008 44.3992 44.0008 43.9992 42.8008C43.9992 42.8008 43.9992 42.4008 43.5992 42.4008C37.5993 30.4008 31.5993 18.0008 25.1993 6.0008C25.1993 5.6008 24.7993 5.2008 24.3993 5.2008C23.9993 4.8008 23.1993 4.8008 22.7993 5.2008C22.7993 5.2008 22.7993 5.6008 22.3993 6.0008C16.3993 18.0008 10.3993 30.0008 4.39928 42.4008C4.39928 42.8008 3.99929 43.2008 3.99929 43.2008C3.99929 44.0008 3.9993 44.8008 4.79928 44.8008C5.19928 44.8008 5.59928 44.8008 5.99928 44.8008C11.9993 45.2008 17.9993 45.2008 23.9993 45.2008Z" fill="#D0D0D0"/>
<path d="M26.8008 32.7998C24.8008 32.7998 22.8008 32.7998 20.8008 32.7998V32.3998C20.8008 27.5998 20.8008 22.7998 20.8008 17.9998C20.8008 16.3998 21.6008 15.1998 23.2008 15.1998C24.4008 14.7998 26.0008 15.5998 26.4008 16.7998C26.4008 17.1998 26.8008 17.5998 26.8008 17.9998C26.8008 22.7998 26.8008 27.9998 26.8008 32.7998Z" fill="#D0D0D0"/>
<path d="M23.9992 36C25.5992 36 26.7992 37.2 26.7992 38.8C26.7992 40.4 25.5992 41.6 23.9992 41.6C22.3992 41.6 21.1992 40.4 21.1992 38.8C21.1992 37.2 22.3992 36 23.9992 36Z" fill="#D0D0D0"/>
</g>
</g>
<defs>
<clipPath id="clip0_356_268">
<rect width="48" height="48" fill="white"/>
</clipPath>
</defs>
</svg>
