<svg xmlns="http://www.w3.org/2000/svg" width="32" height="48" viewBox="0 0 56 72" fill="none">
  <ellipse cx="28.2624" cy="67.1571" rx="15.2429" ry="4.15714" fill="#1EC96B" fill-opacity="0.1"/>
  <path d="M28.3501 0.0106629C24.6645 -0.0918442 20.9957 0.545603 17.5606 1.88532C14.1256 3.22504 10.994 5.23983 8.35102 7.8106C5.70801 10.3814 3.60723 13.4559 2.17286 16.8525C0.738488 20.2491 -0.000357308 23.8989 1.29629e-07 27.5859C1.29629e-07 32.6105 1.95711 38.1383 5.8154 44.0016L21.6081 64.2437C22.3229 65.1481 23.2333 65.879 24.2709 66.3814C25.3085 66.8839 26.4464 67.1449 27.5992 67.1449C28.752 67.1449 29.8899 66.8839 30.9275 66.3814C31.9651 65.879 32.8755 65.1481 33.5903 64.2437L49.2791 44.1294L49.391 43.9777C52.9058 38.4898 55.2383 33.5371 55.1505 27.2025C54.9942 20.1069 52.1322 13.3392 47.1502 8.28439C42.1681 3.22957 35.4427 0.269769 28.3501 0.0106629Z" fill="#1EC96B"/>
  <ellipse cx="27.5902" cy="27.2471" rx="13.137" ry="13.137" fill="white"/>
  <path fill-rule="evenodd" clip-rule="evenodd" d="M23.267 28.8528C23.2728 28.9013 23.3042 28.9389 23.4049 28.9392L23.9969 28.3514C24.5123 27.84 25.0278 27.3284 25.5406 26.8143C25.6736 26.6808 25.7491 26.7594 25.8277 26.8413L25.8594 26.8736L27.2531 28.2432L28.647 29.6128L31.6158 32.5272L32.9807 33.8671C32.997 33.883 33.0141 33.8984 33.0312 33.9137C33.0707 33.949 33.1103 33.9841 33.1381 34.0266C33.2088 34.1353 33.1859 34.2277 33.0446 34.2534C32.9795 34.2653 32.9115 34.2644 32.8439 34.2634L32.7892 34.2629L30.953 34.263C27.8813 34.263 24.81 34.2631 21.7382 34.2613C21.7128 34.2613 21.6869 34.2631 21.6607 34.265C21.574 34.2712 21.4858 34.2775 21.4088 34.2165C21.4081 34.2159 21.4073 34.2154 21.4066 34.2148C21.4066 34.2154 21.407 34.2159 21.407 34.2165C21.268 34.1737 21.2838 34.0761 21.2982 33.9859C21.3025 33.9591 21.3067 33.9329 21.3067 33.9091C21.3026 30.6167 21.3043 27.3244 21.3055 24.0315C21.3055 23.8012 21.306 23.5708 21.3067 23.3405C21.3082 22.7593 21.3098 22.178 21.3016 21.5969C21.2987 21.3573 21.3751 21.2682 21.6271 21.2688C24.7208 21.2726 27.8143 21.2726 30.9079 21.2726L33.9968 21.2727C34.0999 21.2727 34.2253 21.2503 34.2755 21.3629C34.3194 21.4605 34.2482 21.5217 34.1824 21.5785C34.1678 21.5911 34.1534 21.6035 34.1405 21.616L32.1937 23.5276C31.0046 24.6949 29.8154 25.8623 28.6282 27.0315C28.4855 27.1721 28.3886 27.2001 28.2341 27.0422C27.8009 26.5993 27.3573 26.1648 26.9057 25.7392C26.7444 25.5875 26.7768 25.494 26.9193 25.3568C27.4258 24.8679 27.9272 24.3735 28.4283 23.8792L28.8243 23.4889C28.8665 23.4471 28.907 23.4038 28.9489 23.3589L29.017 23.2868C28.9132 23.2162 28.8168 23.2442 28.7267 23.2442C28.1701 23.2435 27.6134 23.2436 27.0567 23.2437C25.9033 23.2439 24.7498 23.2441 23.5964 23.2369C23.3496 23.2352 23.2721 23.2935 23.2738 23.5455C23.2802 24.5751 23.2806 25.6049 23.2809 26.6346C23.2811 27.321 23.2814 28.0075 23.2835 28.6939C23.2835 28.7127 23.2794 28.7347 23.2753 28.7578C23.2731 28.7698 23.2709 28.7821 23.2692 28.7944C23.2692 28.7962 23.2692 28.798 23.2692 28.7998L23.268 28.8331C23.2677 28.8397 23.267 28.8462 23.267 28.8528Z" fill="#2BD076"/>
</svg>